<svg xmlns="http://www.w3.org/2000/svg" version="1.1" xmlns:xlink="http://www.w3.org/1999/xlink" xmlns:svgjs="http://svgjs.com/svgjs" width="1440" height="560" preserveAspectRatio="none" viewBox="0 0 1440 560"><g mask="url(&quot;#SvgjsMask1003&quot;)" fill="none"><rect width="1440" height="560" x="0" y="0" fill="rgba(255, 255, 255, 1)"></rect><path d="M195.42 245.67a50.46 50.46 0 1 0 99.48 17z" stroke="#d3b714"></path><path d="M439.59 168.47L452.9 168.47L452.9 170.06L439.59 170.06z" fill="#d3b714"></path><path d="M1012.77 522.34L1050.68 522.34L1050.68 555L1012.77 555z" fill="#037b0b"></path><path d="M543.06 272.21L574.85 272.21L574.85 274.77L543.06 274.77z" stroke="#e73635"></path><path d="M34.78 520.23 a11.91 11.91 0 1 0 23.82 0 a11.91 11.91 0 1 0 -23.82 0z" stroke="#d3b714"></path><path d="M1317.72 94.06a23.87 23.87 0 1 0 42.82-21.12z" fill="#d3b714"></path><path d="M96.67 134.87L117.67 134.87L117.67 140.23L96.67 140.23z" stroke="#e73635"></path><path d="M689.69 500.96L729.88 500.96L729.88 541.15L689.69 541.15z" fill="#d3b714"></path><path d="M180.38 35.56 a14.13 14.13 0 1 0 28.26 0 a14.13 14.13 0 1 0 -28.26 0z" stroke="#e73635"></path><path d="M1145.49 379.35a40.74 40.74 0 1 0-26.45-77.07z" stroke="#d3b714"></path><path d="M559.34 111.58 a19.94 19.94 0 1 0 39.88 0 a19.94 19.94 0 1 0 -39.88 0z" fill="#d3b714"></path><path d="M418.15 131.71 a32 32 0 1 0 64 0 a32 32 0 1 0 -64 0z" fill="#d3b714"></path><path d="M1151.29 370.16 a24.1 24.1 0 1 0 48.2 0 a24.1 24.1 0 1 0 -48.2 0z" fill="#037b0b"></path><path d="M476.08 557.58L492.27 557.58L492.27 592.85L476.08 592.85z" stroke="#d3b714"></path><path d="M774.11 522.85a33.61 33.61 0 1 0-50.25 44.64z" stroke="#d3b714"></path><path d="M-2.13 164.96 a5.89 5.89 0 1 0 11.78 0 a5.89 5.89 0 1 0 -11.78 0z" stroke="#037b0b"></path><path d="M1121.69 436a53.2 53.2 0 1 0-62.73 85.95z" fill="#e73635"></path><path d="M1074.59 257.94L1118.88 257.94L1118.88 302.23L1074.59 302.23z" fill="#e73635"></path><path d="M314.68 106.51 a48.23 48.23 0 1 0 96.46 0 a48.23 48.23 0 1 0 -96.46 0z" stroke="#037b0b"></path><path d="M1120.24 295.09L1137.45 295.09L1137.45 312.21L1120.24 312.21z" stroke="#037b0b"></path><path d="M91.58 420.14L138.2 420.14L138.2 440.84L91.58 440.84z" stroke="#037b0b"></path><path d="M710.62 13.23 a53.97 53.97 0 1 0 107.94 0 a53.97 53.97 0 1 0 -107.94 0z" stroke="#d3b714"></path><path d="M725.94 223.52L734.71 223.52L734.71 262.23L725.94 262.23z" stroke="#e73635"></path><path d="M212.46 323.08L251.81 323.08L251.81 328.85L212.46 328.85z" stroke="#e73635"></path><path d="M-0.55 456.43 a1.71 1.71 0 1 0 3.42 0 a1.71 1.71 0 1 0 -3.42 0z" fill="#037b0b"></path><path d="M1325.76 540.38a19.25 19.25 0 1 0-3.35-38.36z" fill="#037b0b"></path><path d="M1415.46 263.2 a6.6 6.6 0 1 0 13.2 0 a6.6 6.6 0 1 0 -13.2 0z" fill="#037b0b"></path><path d="M524.8 538.97a19.08 19.08 0 1 0-16.44-34.44z" fill="#037b0b"></path><path d="M981.84 302.61a13.47 13.47 0 1 0-23.26-13.59z" fill="#d3b714"></path><path d="M333.47 217.4a49.76 49.76 0 1 0 20.27 97.43z" fill="#e73635"></path><path d="M384.12 73.23L410.98 73.23L410.98 85.43L384.12 85.43z" stroke="#037b0b"></path><path d="M1301.95 399.01L1351.79 399.01L1351.79 450.95L1301.95 450.95z" stroke="#d3b714"></path><path d="M202.26 76.97L215.71 76.97L215.71 88.82L202.26 88.82z" stroke="#d3b714"></path></g><defs><mask id="SvgjsMask1003"><rect width="1440" height="560" fill="#ffffff"></rect></mask></defs></svg>